<svg xmlns="http://www.w3.org/2000/svg"><defs><font id="Hind" horiz-adv-x="523"><font-face font-family="Hind" panose-1="2 0 0 0 0 0 0 0 0 0" ascent="1055" descent="-546" alphabetic="0"/><glyph glyph-name="space" horiz-adv-x="244"/><glyph unicode="!" glyph-name="exclam" horiz-adv-x="251" d="M87 204v470h77V204H87ZM65 51q0 24 17 41t42 18 42-17 18-42q0-25-17-42T124-8 82 9 65 51Z"/><glyph unicode="&quot;" glyph-name="quotedbl" horiz-adv-x="295" d="M44 444v237h71V444H44Zm137 0v237h70V444h-70Z"/><glyph unicode="#" glyph-name="numbersign" horiz-adv-x="710" d="m425 233 44 206H290l-44-206h179Zm232 206H541l-43-206h107v-63H485L449 0h-73l36 170H233L197 0h-71l36 170H53v63h122l43 206H107v64h125l36 171h72l-36-171h179l36 171h71l-36-171h103v-64Z"/><glyph unicode="$" glyph-name="dollar" horiz-adv-x="505" d="M417 649v-85q-61 40-145 40-61 0-97-28t-36-75q0-25 9-43t35-36 40-24 54-25q7-3 11-5 38-17 62-30t51-36 40-53 13-70q0-82-52-130T264-6v-103h-69V-5Q113 3 56 36v87q73-55 178-55 63 0 99 28t37 81q0 24-9 42t-35 36-40 24-56 25q-12 5-18 8-36 16-59 29t-49 36-38 52-13 68q0 80 54 128t139 54v104h69V677q59-7 102-28Z"/><glyph unicode="%" glyph-name="percent" horiz-adv-x="847" d="m206-1 357 666h77L281-1h-75Zm276 152q0 66 46 112t112 47q65 0 111-47t47-112-46-111T640-7q-66 0-112 46t-46 112ZM49 515q0 65 46 111t112 47 112-46 47-112q0-66-47-112t-112-47-111 46-47 113Zm69 37v-37l26-63 63-27 63 26 27 64-26 63-64 26-63-26Zm432-364v-37l26-63 64-26 63 26 27 63-26 63-64 27q-37 0-63-26Z"/><glyph unicode="&amp;" glyph-name="ampersand" horiz-adv-x="703" d="M315 65q94 0 156 50-35 33-82 76t-76 71-40 37q-64-24-95-53t-31-69q0-51 47-81t121-31Zm3 553q-45 0-74-25t-30-71q0-32 18-63t67-81q67 31 97 63t31 75q0 43-28 72t-81 30ZM701 0H594l-68 63Q445-8 317-8 204-8 135 43T65 176q0 113 158 173-47 51-69 90t-22 84q0 75 51 121t136 46 137-49 52-124q0-57-36-103t-123-86l169-158q24 44 28 98h76q-6-86-48-150L701 0Z"/><glyph unicode="'" glyph-name="quotesingle" horiz-adv-x="159" d="M44 444v237h71V444H44Z"/><glyph unicode="(" glyph-name="parenleft" horiz-adv-x="310" d="M320-196h-88Q72 8 72 261q0 122 41 238t112 208h87Q155 495 155 257q0-240 165-453Z"/><glyph unicode=")" glyph-name="parenright" horiz-adv-x="310" d="M86 707q71-92 112-208t41-238Q239 9 78-196h-88Q155 17 155 257T-2 707h88Z"/><glyph unicode="*" glyph-name="asterisk" horiz-adv-x="408" d="M250 488h-7q19-10 32-30l56-78-51-38-57 78q-14 20-19 39-5-20-19-40l-57-77-52 37 57 79q16 21 31 29h-8q-19 0-36 6l-91 30 19 62 93-30q21-7 39-23-9 20-9 46v96h64v-96q0-26-8-44 15 15 39 22l92 29 20-61-92-30q-16-6-36-6Z"/><glyph unicode="+" glyph-name="plus" horiz-adv-x="553" d="M497 376v-72H310V115h-74v189H57v72h179v189h74V376h187Z"/><glyph unicode="," glyph-name="comma" horiz-adv-x="225" d="m-8-123 93 224h105L61-123H-8Z"/><glyph unicode="-" glyph-name="hyphen" horiz-adv-x="348" d="M57 234v69h234v-69H57Z"/><glyph unicode="." glyph-name="period" horiz-adv-x="166" d="M24 26v25l17 42 42 17 42-17 17-42-17-42L83-8 41 9Z"/><glyph unicode="/" glyph-name="slash" horiz-adv-x="403" d="m-9-102 364 809h81L71-102H-9Z"/><glyph unicode="0" glyph-name="zero" horiz-adv-x="544" d="M43 329q0 154 62 243t165 90q106 0 168-89t63-244q0-153-60-245T270-8Q167-8 105 84T43 329Zm81 123V329l42-192 104-70q69 0 109 68t41 194q0 125-42 191t-108 67q-60 0-103-67Z"/><glyph unicode="1" glyph-name="one" horiz-adv-x="323" d="M18 475v85l155 94h74V0h-78v568L18 475Z"/><glyph unicode="2" glyph-name="two" horiz-adv-x="494" d="M147 69h304V0H38v67q310 234 310 390 0 62-36 95t-97 34q-79 0-156-59v79q71 55 163 55 88 0 148-51t60-145q0-177-283-396Z"/><glyph unicode="3" glyph-name="three" horiz-adv-x="466" d="M58 547v77q58 37 134 37 97 0 150-49t54-123q0-53-26-95t-79-63q57-13 90-52t34-99q0-80-56-133T201-6Q107-6 38 27v79q74-39 161-39 64 0 99 33t36 86-39 81-114 29h-42v69h42q56 0 94 31t39 85-33 80-91 27q-69 0-132-41Z"/><glyph unicode="4" glyph-name="four" horiz-adv-x="540" d="M122 228h219v379L122 228Zm394 0v-69h-97V0h-78v159H42v69l249 426h128V228h97Z"/><glyph unicode="5" glyph-name="five" horiz-adv-x="509" d="M169 585V389q45 10 78 10 100 0 158-53t59-142q0-97-63-154T227-8Q128-8 59 26v78q64-38 155-38 168 0 168 141 0 57-39 88t-101 32q-73 0-151-35v362h328v-69H169Z"/><glyph unicode="6" glyph-name="six" horiz-adv-x="526" d="M284 62q57 0 90 42t34 110q0 62-33 99t-88 37q-90 0-156-73 4-106 45-160t108-55Zm160 596v-77q-43 19-91 19-94 0-150-70t-69-178q66 69 163 69 90 0 141-57t52-151q0-100-56-162T284-11q-112 0-172 85T52 296q0 163 80 270t220 107q45 0 92-15Z"/><glyph unicode="7" glyph-name="seven" horiz-adv-x="451" d="M12 654h427v-69L168 0H84l271 585H12v69Z"/><glyph unicode="8" glyph-name="eight" horiz-adv-x="536" d="M265 62q67 0 103 33t36 82q0 48-35 81t-104 32q-67-1-100-35t-34-86q0-46 35-76t99-31Zm-1 529q-56 0-89-33t-33-80q0-57 35-86t91-29q53 0 87 30t34 86q0 48-32 80t-93 32Zm100-263q121-37 121-158 0-81-63-129T264-8q-91 0-152 47T51 165q0 59 31 100t87 61Q62 367 62 477q0 87 60 135t142 49q85 0 145-47t60-138q0-51-28-89t-77-59Z"/><glyph unicode="9" glyph-name="nine" horiz-adv-x="504" d="M384 368v5q0 95-33 155t-108 61q-57 0-91-38t-34-104q0-69 36-106t98-37q82 0 132 64ZM64 11v78q52-23 110-23 181 0 206 227-50-59-148-59-80 0-138 58T36 447q0 93 55 154t150 61q110 0 165-82t56-207q0-178-71-279T177-8Q119-8 64 11Z"/><glyph unicode=":" glyph-name="colon" horiz-adv-x="235" d="M59 380q0 24 16 41t42 17 42-17 17-41q0-25-17-41t-42-17-41 16-17 42Zm0-348v25l16 42 42 17 42-17 17-42-17-41-42-17-41 16Z"/><glyph unicode=";" glyph-name="semicolon" horiz-adv-x="225" d="M70 379q0 24 16 41t42 17 42-17 17-41q0-25-17-41t-42-17-41 16-17 42ZM-8-123l93 224h105L61-123H-8Z"/><glyph unicode="&lt;" glyph-name="less" horiz-adv-x="527" d="M57 303v76l421 188v-81Q214 377 140 342q34-17 118-53t152-65l68-28v-82L57 303Z"/><glyph unicode="=" glyph-name="equal" horiz-adv-x="553" d="M57 407v68h440v-68H57Zm0-202v69h440v-69H57Z"/><glyph unicode="&gt;" glyph-name="greater" horiz-adv-x="527" d="M470 379v-76L49 114v82q262 108 337 146-33 16-117 52t-152 64l-68 28v81l421-188Z"/><glyph unicode="?" glyph-name="question" horiz-adv-x="452" d="M45 561v80q65 41 160 41t152-48 57-135q0-85-59-132t-137-54l-1-109h-76l-1 166q92 0 142 31t50 95q0 51-33 83t-98 32q-77 0-156-50Zm74-510q0 24 17 41t41 18q25 0 43-17t18-42q0-25-17-42T177-8q-25 0-41 17t-17 42Z"/><glyph unicode="@" glyph-name="at" horiz-adv-x="905" d="M429 83q40 0 75 28t52 78q2 36 4 55-16 105-108 105-52 0-86-44t-34-107q0-52 27-83t70-32ZM594-57l-4-77q-67-34-176-34-163 0-258 102T60 196q0 179 126 298t305 119q154 0 260-96t107-253q0-115-54-179T681 21q-92 0-117 86-53-89-148-89-74 0-116 52t-43 132q0 90 55 151t138 62q80 0 118-64 0 8 1 27t3 32h66l-15-138q-4-53-4-86 0-101 66-101 44 0 73 48t30 126q0 136-84 211t-215 76q-144 0-248-100T136 196q0-142 81-219t199-77q100 0 178 43Z"/><glyph unicode="A" glyph-name="A" horiz-adv-x="648" d="M205 246h239l-13 39-105 324q-12-43-108-325l-13-38ZM526 0l-59 177H182L122 0H35l235 674h112L613 0h-87Z"/><glyph unicode="B" glyph-name="B" horiz-adv-x="571" d="M158 69h153q64 0 98 29t35 87-38 89-110 32H158V69Zm0 536V375h108q81 0 120 34t39 88q0 47-36 77t-109 31H158Zm-81 69h203q104 0 166-48t63-129q0-58-32-100t-84-54q56-9 95-50t40-113q0-81-53-130T323 0H77v674Z"/><glyph unicode="C" glyph-name="C" horiz-adv-x="602" d="M558 647v-83q-44 23-79 33t-92 10q-109 0-181-74t-73-193q0-124 72-198t191-74q96 0 164 51V34Q498-8 390-8 238-8 143 85T48 340q0 152 96 247t243 96q105 0 171-36Z"/><glyph unicode="D" glyph-name="D" horiz-adv-x="661" d="M159 71h121q125 0 189 77t64 194q0 110-71 185t-186 75H159V71ZM77 674h200q149 0 244-92t96-240q0-146-88-244T281 0H77v674Z"/><glyph unicode="E" glyph-name="E" horiz-adv-x="501" d="M158 71h295V0H77v674h371v-71H158V372h256v-71H158V71Z"/><glyph unicode="F" glyph-name="F" horiz-adv-x="489" d="M447 603H158V364h254v-71H158V0H77v674h370v-71Z"/><glyph unicode="G" glyph-name="G" horiz-adv-x="670" d="M603 378V56h-1l1-3Q522-8 394-8 238-8 143 84T48 338q0 153 94 250t239 98q119 0 197-46v-87q-82 54-190 54-113 0-184-73t-71-196q0-125 70-196t193-72q68 0 126 27v210H374v71h229Z"/><glyph unicode="H" glyph-name="H" horiz-adv-x="643" d="M485 674h81V0h-81v305H158V0H77v674h81V378h327v296Z"/><glyph unicode="I" glyph-name="I" horiz-adv-x="247" d="M83 0v674h81V0H83Z"/><glyph unicode="J" glyph-name="J" horiz-adv-x="358" d="M30 22v78q40-26 84-26 87 0 87 92v508h81V173Q282 0 125 0 69 0 30 22Z"/><glyph unicode="K" glyph-name="K" horiz-adv-x="573" d="M77 0v674h81V0H77Zm197 333L545 0H440L174 333l257 341h100L274 333Z"/><glyph unicode="L" glyph-name="L" horiz-adv-x="477" d="M158 73h287V0H77v674h81V73Z"/><glyph unicode="M" glyph-name="M" horiz-adv-x="857" d="m70 0 49 674h103l89-246 108-314q58 164 114 314l93 246h103L788 0h-81l-23 266-24 299q-53-148-109-299L457 15h-77l-89 251-102 293q0-39-19-293L151 0H70Z"/><glyph unicode="N" glyph-name="N" horiz-adv-x="673" d="M77 0v674h102l169-284L519 98q-4 97-4 291v285h81V0H494L325 282q-51 85-94 158t-61 106l-17 31q5-104 5-293V0H77Z"/><glyph unicode="O" glyph-name="O" horiz-adv-x="700" d="M48 340q0 159 81 253t221 94q142 0 222-93t81-254q0-159-81-253T351-8Q214-8 131 87T48 340Zm85 0q0-125 59-198t159-73q103 0 159 72t57 199-57 199-160 72q-102 0-159-72t-58-199Z"/><glyph unicode="P" glyph-name="P" horiz-adv-x="545" d="M158 317h104q76 0 119 39t43 101q0 68-44 108t-125 40h-97V317ZM77 674h177q117 0 184-60t68-157q0-90-67-149t-177-60H158V0H77v674Z"/><glyph unicode="Q" glyph-name="Q" horiz-adv-x="709" d="M133 340q0-125 59-198t159-73q103 0 159 72t57 199-57 199-160 72q-102 0-159-72t-58-199Zm550-445-88-37L395-5q-21-3-44-3-137 0-220 95T48 340q0 159 81 253t221 94q142 0 222-93t81-254q0-116-44-199T483 19l200-124Z"/><glyph unicode="R" glyph-name="R" horiz-adv-x="548" d="M158 604V335h102q69 0 105 37t37 97q0 135-151 135h-93ZM525 0h-97L263 266H158V0H77v674h169q117 0 177-55t61-152q-2-70-37-119t-99-69L525 0Z"/><glyph unicode="S" glyph-name="S" horiz-adv-x="524" d="M430 649v-85q-61 40-146 40-61 0-97-28t-36-75q0-24 9-43t34-35 41-25 53-25q34-15 52-23t46-27 43-36 26-46 12-62q0-89-61-137T249-7Q143-7 69 36v87q73-55 178-55 63 0 99 28t36 81q0 22-8 39t-28 32-37 24-48 24q-6 3-18 8-43 19-65 31t-53 35-45 55-14 72q0 86 61 134t155 49q87 0 148-31Z"/><glyph unicode="T" glyph-name="T" horiz-adv-x="482" d="M463 674v-71H281V0h-81v603H18v71h445Z"/><glyph unicode="U" glyph-name="U" horiz-adv-x="645" d="M488 254v420h81V256q0-130-65-197T321-8Q206-8 141 57T76 248v426h81V249q0-93 44-137t120-44q167 0 167 186Z"/><glyph unicode="V" glyph-name="V" horiz-adv-x="637" d="M601 674 366 0H264L36 674h87l88-267L316 73q39 126 108 334l90 267h87Z"/><glyph unicode="W" glyph-name="W" horiz-adv-x="938" d="M432 664h81l74-240L689 82q46 221 74 341l57 251h82L744 0H640l-65 213-101 337q-31-118-96-337L315 0H212L36 674h85l63-250 83-339q56 205 95 339l70 240Z"/><glyph unicode="X" glyph-name="X" horiz-adv-x="613" d="M256 340 51 674h95l155-261q4 8 79 133t76 128h96L348 340 574 0h-95L303 271q-1-2-82-132T135 0H39l217 340Z"/><glyph unicode="Y" glyph-name="Y" horiz-adv-x="593" d="M567 674 336 251V0h-81v250L26 674h94l51-99q52-100 83-163t36-76l5-12q9 25 127 251l51 99h94Z"/><glyph unicode="Z" glyph-name="Z" horiz-adv-x="569" d="M502 674v-66L146 69h371V0H52v67l356 538H57v69h445Z"/><glyph unicode="[" glyph-name="bracketleft" horiz-adv-x="310" d="M307 637H155v-748h152v-72H77v890h230v-70Z"/><glyph unicode="\" glyph-name="backslash" horiz-adv-x="402" d="m48 707 364-810h-80L-33 707h81Z"/><glyph unicode="]" glyph-name="bracketright" horiz-adv-x="310" d="M233 707v-890H3v72h152v748H3v70h230Z"/><glyph unicode="^" glyph-name="asciicircum" horiz-adv-x="461" d="M416 332h-79L232 540 124 332H45l142 262h91l138-262Z"/><glyph unicode="_" glyph-name="underscore" horiz-adv-x="561" d="M28-100v69h505v-69H28Z"/><glyph unicode="`" glyph-name="grave" horiz-adv-x="421" d="m210 798 98-156h-69L115 798h95Z"/><glyph unicode="a" glyph-name="a" horiz-adv-x="492" d="M346 234h-88q-64 0-96-25t-32-63 25-61 73-24q54 0 86 30t32 78v65ZM84 401v79q57 35 150 35 191 0 191-194V0h-78v60Q308-5 205-5 134-5 91 37T47 143q0 73 55 113t152 41h92v26q0 60-27 90t-91 31q-81 0-144-43Z"/><glyph unicode="b" glyph-name="b" horiz-adv-x="570" d="M304 64q61 0 101 51t40 133q0 94-41 144t-105 51q-54 0-99-45t-45-141q0-101 43-147t106-46ZM155 707V431q55 84 154 84 96 0 157-73t61-193q0-107-57-182T311-8Q209-8 155 75V0H76v707h79Z"/><glyph unicode="c" glyph-name="c" horiz-adv-x="471" d="M125 251q1-82 50-136t139-55q58 0 108 33V18q-48-29-118-29-120 0-190 76T43 252q0 108 70 186t193 78q65 0 116-28v-75q-46 31-108 31-86 0-137-55t-52-138Z"/><glyph unicode="d" glyph-name="d" horiz-adv-x="567" d="M266 64q62 0 105 46t44 147q0 96-45 141t-99 45q-63 0-104-50t-42-145q0-82 40-133t101-51Zm149 643h79V0h-79v75Q361-8 259-8 158-8 101 67T43 249q0 119 61 192t157 74q99 0 154-85v277Z"/><glyph unicode="e" glyph-name="e" horiz-adv-x="522" d="M396 286v20q0 63-34 100t-94 38q-57 0-97-41t-47-117h272Zm47-186V26Q384-5 299-5 184-5 114 65T43 252q0 121 63 191t162 70q95 0 151-61t56-173q0-32-5-59H124q9-75 57-115t126-40q85 0 136 35Z"/><glyph unicode="f" glyph-name="f" horiz-adv-x="329" d="M315 707v-72q-24 8-46 8-32 0-52-22t-21-68v-46h112v-64H196V0h-79v443H30v64h87v47q0 74 39 117t110 43q24 0 49-7Z"/><glyph unicode="g" glyph-name="g" horiz-adv-x="549" d="M263 83q55 0 97 42t43 127q0 97-41 144t-95 47q-65 0-103-51t-38-135q0-85 42-129t95-45Zm140 424h79V41q0-116-64-174t-165-59q-92 0-157 31v79q64-37 150-37 73 0 115 39t42 122v57q-50-86-149-86-87 0-148 64T44 255q0 113 57 186t149 73q104 0 153-91v84Z"/><glyph unicode="h" glyph-name="h" horiz-adv-x="540" d="M151 707V419q45 95 160 95 73 0 117-45t45-122V0h-79v328q0 55-28 85t-75 30q-56 0-98-43t-42-123V0H73v707h78Z"/><glyph unicode="i" glyph-name="i" horiz-adv-x="233" d="M77 0v507h79V0H77ZM65 644v22l14 37 37 15 37-15 15-37-15-36-37-15-36 14Z"/><glyph unicode="j" glyph-name="j" horiz-adv-x="228" d="M-46-180v70q38-16 68-16 56 0 56 73v560h78V-55q0-66-34-103t-96-37q-33 0-72 15ZM65 644v22l14 37 37 15 37-15 15-37-15-36-37-15-36 14Z"/><glyph unicode="k" glyph-name="k" horiz-adv-x="480" d="M73 0v703h78V0H73Zm181 266L460 0h-95L161 266l199 241h94L254 266Z"/><glyph unicode="l" glyph-name="l" horiz-adv-x="233" d="M77 0v707h79V0H77Z"/><glyph unicode="m" glyph-name="m" horiz-adv-x="818" d="M151 507v-82q42 89 143 89 117 0 148-99 22 48 61 73t89 26q79 0 119-45t40-121V0h-79v328q0 115-97 115-48 0-86-43t-38-123V0h-79v328q0 115-97 115-48 0-86-43t-38-123V0H73v507h78Z"/><glyph unicode="n" glyph-name="n" horiz-adv-x="540" d="M151 507v-88q45 95 160 95 74 0 118-45t44-120V0h-79v328q0 56-28 85t-75 30q-57 0-98-44t-42-122V0H73v507h78Z"/><glyph unicode="o" glyph-name="o" horiz-adv-x="562" d="M279-9Q170-9 107 64T43 250q0 113 65 188t171 76q115 0 177-74t63-188q0-113-64-187T279-9Zm0 453q-72 0-113-56t-41-137q0-79 42-134t112-56q76 0 117 54t41 136q0 84-39 138t-119 55Z"/><glyph unicode="p" glyph-name="p" horiz-adv-x="567" d="M296 64q64 0 105 50t41 144q0 83-40 134t-101 51-105-44-45-146q0-97 45-143t100-46ZM151 507v-77q53 85 157 85 101 0 158-73t58-184q0-117-60-191T306-8Q206-8 151 77v-274H73v704h78Z"/><glyph unicode="q" glyph-name="q" horiz-adv-x="567" d="M271 64q55 0 99 45t45 144q0 101-44 145t-105 45-101-51-40-134q0-93 41-143t105-51Zm144 443h79v-704h-79V76Q360-8 261-8q-97 0-157 74T43 258q0 110 58 183t159 74 155-83v75Z"/><glyph unicode="r" glyph-name="r" horiz-adv-x="326" d="M151 507v-89q40 94 138 94 18 0 28-2v-78q-21 7-43 7-53 0-88-49t-35-113V0H72l1 507h78Z"/><glyph unicode="s" glyph-name="s" horiz-adv-x="412" d="M349 490v-75q-46 28-126 28-40 0-63-18t-24-48q0-18 7-31t27-27 30-17 42-19q64-26 100-59t36-89q0-65-45-103T208-6Q116-6 59 25v77q67-40 144-40 46 0 70 18t24 49q0 36-26 56t-89 45q-57 22-91 55t-35 89q0 63 47 100t119 38q79 0 127-22Z"/><glyph unicode="t" glyph-name="t" horiz-adv-x="369" d="M182 443V146q0-81 76-81 39 0 69 23V13Q294-5 253-5 103-5 103 148v295H22v64h81v126h79V507h140v-64H182Z"/><glyph unicode="u" glyph-name="u" horiz-adv-x="540" d="M388 507h79V0h-79v88Q348-6 229-6q-75 0-118 44T67 158v349h79V178q0-55 28-84t76-29q63 0 100 44t38 119v279Z"/><glyph unicode="v" glyph-name="v" horiz-adv-x="505" d="M202 0 25 507h82l70-214 74-231q9 43 75 231l72 214h82L299 0h-97Z"/><glyph unicode="w" glyph-name="w" horiz-adv-x="792" d="M181 0 25 507h84l49-168q26-88 43-153t23-88l5-21q15 64 73 263l48 167h84l49-167 75-264q14 59 77 264l51 167h81L607 0h-97l-48 166-70 253q-15-64-68-253L278 0h-97Z"/><glyph unicode="x" glyph-name="x" horiz-adv-x="478" d="M283 259 453 0h-91L239 200 112 0H25l170 260L35 508h91l115-190 116 190h90L283 259Z"/><glyph unicode="y" glyph-name="y" horiz-adv-x="493" d="M213 13 8 507h89l66-167 89-230q8 26 80 230l59 167h85L293 13q-39-103-92-145T78-174q-26 0-42 5v71q15-4 34-4 101 0 143 115Z"/><glyph unicode="z" glyph-name="z" horiz-adv-x="453" d="M395 507v-58L135 71h274V0H44v62l257 375H54v70h341Z"/><glyph unicode="{" glyph-name="braceleft" horiz-adv-x="334" d="M321 705v-78q-17 9-33 9-31 0-47-21t-16-53q0-26 10-77t11-80q0-56-31-95t-91-48q59-9 90-48t32-95q0-30-10-81t-11-77q0-32 16-53t47-21q16 0 33 9v-77q-21-8-47-8-55 0-92 40T144-40q0 27 10 74t11 69q0 101-88 119-9 2-29 2v77q18 0 29 2 43 6 65 38t23 79q0 22-10 69t-11 74q0 68 38 109t92 41q21 0 47-8Z"/><glyph unicode="|" glyph-name="bar" horiz-adv-x="228" d="M78-194v889h72v-889H78Z"/><glyph unicode="}" glyph-name="braceright" horiz-adv-x="334" d="M13 627v78q26 8 47 8 54 0 92-41t38-109q0-27-10-74t-11-69q0-46 22-78t66-39q11-2 29-2v-77q-20 0-29-2-45-9-66-41t-22-78q0-22 10-69t11-74q0-68-37-108t-93-41q-26 0-47 8v77q17-9 34-9 30 0 46 21t16 53q0 26-10 77t-10 81q0 55 31 94t90 49q-58 9-89 48t-32 95q0 30 10 80t10 77q0 32-16 53t-46 21q-17 0-34-9Z"/><glyph unicode="~" glyph-name="asciitilde" horiz-adv-x="599" d="m504 326 59-42q-58-90-143-90-47 0-117 37t-99 37q-67 0-115-69l-53 46q68 95 156 95 54 0 121-37t100-37q56 0 91 60Z"/><glyph glyph-name="uni00A0" horiz-adv-x="244"/><glyph unicode="¡" glyph-name="exclamdown" horiz-adv-x="251" d="M65 458q0 26 16 42t43 17 43-17 17-42q0-24-17-41t-43-18-42 17-17 42Zm22-623v470h77v-470H87Z"/><glyph unicode="¢" glyph-name="cent" horiz-adv-x="452" d="M412 490v-74q-47 25-94 25-87 0-138-54t-53-136q1-81 50-134t141-53q52 0 94 24V14Q379-2 334-7v-104h-69V-5Q162 8 104 80T46 252q0 97 58 170t161 88v105h69V512q42-5 78-22Z"/><glyph unicode="£" glyph-name="sterling" horiz-adv-x="522" d="M161 69h322V0H61v66q57 27 78 67t21 116q0 13-2 43H66v63h85q-8 68-8 94 0 101 53 155t151 55q58 0 108-25v-78q-48 28-100 28-131 0-131-131 0-30 8-98h180v-63H238q2-30 2-42 0-77-20-117t-59-64Z"/><glyph unicode="¤" glyph-name="currency" horiz-adv-x="543" d="M55 309q0 72 40 128l-61 61 51 49 60-61q57 41 130 41 70 0 126-37l58 57 50-49-58-58q38-56 38-125 0-71-42-129l62-61-50-49-62 61q-56-39-128-39-73 0-126 36L85 76l-51 49 59 58q-38 53-38 126Zm68 4q0-65 42-107t107-43q64 0 106 42t42 107q0 64-42 107t-106 43q-65 0-107-42t-42-107Z"/><glyph unicode="¥" glyph-name="yen" horiz-adv-x="585" d="M549 654 390 362h119v-59H358l-27-49v-39h178v-58H331V0h-82v157H72v58h177v38l-27 50H72v59h118L33 654h92l165-322 167 322h92Z"/><glyph unicode="¦" glyph-name="brokenbar" horiz-adv-x="228" d="M150 367H78v331h72V367Zm0-545H78v331h72v-331Z"/><glyph unicode="§" glyph-name="section" horiz-adv-x="512" d="M132 300q0-25 9-44t33-35 42-26 57-26q60-27 81-38 25 30 25 72 0 43-31 68t-96 57q-13 6-45 19t-49 22q-26-29-26-69Zm285 349v-85q-61 40-145 40-63 0-98-24t-35-69q0-20 6-34t24-26 29-18 43-19 47-20q33-15 51-24t45-28 39-35 24-45 11-59q0-71-43-119 41-43 41-106 0-87-60-134t-156-47q-107 0-181 44v87q74-56 178-56 65 0 100 27t36 78q0 41-30 66t-101 57q-34 15-47 21t-42 21-42 29-30 32-23 43-7 53q0 66 42 113-38 38-38 96 0 83 60 127t154 45q87 0 148-31Z"/><glyph unicode="¨" glyph-name="dieresis" horiz-adv-x="421" d="M58 701v22l15 36 37 15 36-14 15-37-14-37-37-15-37 15Zm202 0v22l14 36 37 15 37-14 15-37-15-37-37-15-36 15Z"/><glyph unicode="©" glyph-name="copyright" horiz-adv-x="776" d="M43 336q0 142 101 244t244 102 243-102 102-244q0-141-101-243T388-9 145 93 43 336Zm67 116V336l82-197 197-82 197 81 82 198-82 198-197 82-197-82Zm183-118q1-54 35-90t89-36q46 0 78 25v-65q-32-21-84-21-86 0-137 54t-51 134q1 77 51 133t138 56q47 0 83-20v-65q-35 23-78 23-55 0-89-35t-35-93Z"/><glyph unicode="ª" glyph-name="ordfeminine" horiz-adv-x="350" d="M253 588h-63q-119 0-119-74 0-31 21-50t62-19q43 0 71 25t28 59v59ZM33 730v65q53 31 126 31 84 0 122-41t39-123V392h-65v54q-44-58-119-58-60 0-97 33T2 512q0 62 47 96t129 35h75v21q0 51-22 77t-77 26q-66 0-121-37Z"/><glyph unicode="«" glyph-name="guillemotleft" horiz-adv-x="480" d="M264 415 118 253 264 91h-87L27 253l150 162h87Zm186 0L304 253 450 91h-87L213 253l150 162h87Z"/><glyph unicode="¬" glyph-name="logicalnot" horiz-adv-x="549" d="M512 160h-73v182H25v71h487V160Z"/><glyph unicode="­" glyph-name="uni00AD" horiz-adv-x="348" d="M57 234v69h234v-69H57Z"/><glyph unicode="®" glyph-name="registered" horiz-adv-x="449" d="M203 651v-64h25q29 0 29 32t-32 32h-22Zm-44 36h61q82 0 82-68 0-43-36-60l54-86h-52l-46 78h-19v-78h-44v214Zm67-281q75 0 121 46t46 121q0 75-46 121t-121 47q-76 0-121-46T59 573t45-121 122-46Zm-1 382q93 0 153-61t61-154-60-153-154-60q-94 0-154 60T10 573t60 154 155 61Z"/><glyph unicode="¯" glyph-name="overscore" horiz-adv-x="421" d="M351 693H69v56h282v-56Z"/><glyph unicode="°" glyph-name="degree" horiz-adv-x="355" d="M30 530q0 63 42 104t107 42q63 0 104-40t42-103-43-105-106-42q-64 0-105 40T30 530Zm63 37v-36l25-61 61-25 59 25 23 61-24 61-61 26-59-25Z"/><glyph unicode="±" glyph-name="plusminus" horiz-adv-x="553" d="M57 30v70h440V30H57Zm253 370h187v-69H310V162h-74v169H57v69h179v169h74V400Z"/><glyph unicode="²" glyph-name="twosuperior" horiz-adv-x="365" d="M47 392v49q198 149 198 249 0 39-21 58t-56 19q-54 0-107-43v69q54 33 109 33 59 0 100-34t41-97q0-59-48-124T136 447h190v-55H47Z"/><glyph unicode="³" glyph-name="threesuperior" horiz-adv-x="325" d="M103 637h24q36 0 60 18t25 50q0 63-73 63-44 0-92-31v63q44 26 94 26 66 0 101-33t36-83q0-39-21-65t-58-34q37-3 64-32t27-71q0-53-37-86t-104-34q-66 0-114 25v60q50-28 111-28 37 0 58 18t21 48q0 33-25 52t-73 19h-24v55Z"/><glyph unicode="´" glyph-name="acute" horiz-adv-x="421" d="m115 642 99 156h94L184 642h-69Z"/><glyph unicode="µ" glyph-name="uni00B5" horiz-adv-x="546" d="M394 507h79V0h-79v77Q358-6 261-6q-66 0-110 38v-211H73v686h78V178q0-53 36-83t86-30q56 0 88 43t33 120v279Z"/><glyph unicode="¶" glyph-name="paragraph" horiz-adv-x="545" d="M286 674v-822h-71v489q-90 0-139 47T26 505q0 68 50 118t143 51h67Zm115-822v822h71v-822h-71Z"/><glyph unicode="·" glyph-name="middot" horiz-adv-x="232" d="M57 294v25l17 42 42 17 42-17 17-42-17-42-42-17-42 17Z"/><glyph unicode="¸" glyph-name="cedilla" horiz-adv-x="421" d="M285-122q0-54-38-91t-112-39v58q84 6 84 71 0 34-23 72h71q18-25 18-71Z"/><glyph unicode="¹" glyph-name="onesuperior" horiz-adv-x="250" d="M10 690v65l117 67h52V392h-62v357L10 690Z"/><glyph unicode="º" glyph-name="ordmasculine" horiz-adv-x="376" d="M186 386q-89 0-140 62T-6 605t53 159 139 64q94 0 144-62t51-159q0-97-51-159t-144-62Zm0 383q-58 0-90-47T63 606t33-115 91-47q61 0 93 46t32 116q0 71-30 117t-96 46Z"/><glyph unicode="»" glyph-name="guillemotright" horiz-adv-x="482" d="m116 415 151-162L116 91H29l147 162L29 415h87Zm186 0 151-162L302 91h-87l147 162-147 162h87Z"/><glyph unicode="¼" glyph-name="onequarter" horiz-adv-x="832" d="M172 281v357L65 579v65l118 67h52V281h-63Zm423 431h71L215 0h-71l451 712Zm-64-562h133v230L531 150Zm256 0V99h-62V0h-61v99H467v51l164 279h94V150h62Z"/><glyph unicode="½" glyph-name="onehalf" horiz-adv-x="833" d="M514 0v49q85 63 141 129t57 120q0 39-21 58t-56 19q-54 0-107-43v69q54 33 109 33 59 0 100-34t42-97q0-59-48-124T604 55h189V0H514ZM65 579v65l118 67h52V281h-63v357L65 579ZM144 0l451 712h71L215 0h-71Z"/><glyph unicode="¾" glyph-name="threequarters" horiz-adv-x="866" d="M84 626v63q44 26 94 26 66 0 101-33t36-83q0-39-21-65t-58-34q37-3 64-32t27-71q0-53-37-86t-104-34q-66 0-114 25v60q50-28 111-28 37 0 58 18t21 48q0 33-25 52t-73 19h-24v55h24q36 0 60 18t25 50q0 63-73 63-44 0-92-31Zm567 86h71L272 0h-72l451 712Zm-64-562h133v229L587 150Zm256 0V99h-62V0h-61v99H523v51l164 279h94V150h62Z"/><glyph unicode="¿" glyph-name="questiondown" horiz-adv-x="452" d="M414-52v-80q-65-41-160-41t-152 48T45 10q0 85 59 132t137 54l1 109h76l1-166q-92 0-142-31t-50-95q0-51 33-82t99-32q78 0 155 49Zm-74 536v-25l-16-42-42-18-43 17-18 43 17 41 44 17q25 0 41-16Z"/><glyph unicode="À" glyph-name="Agrave" horiz-adv-x="648" d="M354 727h-69L161 883h95l98-156ZM205 246h239l-13 39-105 324q-12-43-108-325l-13-38ZM526 0l-59 177H182L122 0H35l235 674h112L613 0h-87Z"/><glyph unicode="Á" glyph-name="Aacute" horiz-adv-x="648" d="M492 883 368 727h-69l99 156h94ZM205 246h239l-13 39-105 324q-12-43-108-325l-13-38ZM526 0l-59 177H182L122 0H35l235 674h112L613 0h-87Z"/><glyph unicode="Â" glyph-name="Acircumflex" horiz-adv-x="648" d="m327 832-85-105h-80l127 156h76l127-156h-80l-85 105ZM205 246h239l-13 39-105 324q-12-43-108-325l-13-38ZM526 0l-59 177H182L122 0H35l235 674h112L613 0h-87Z"/><glyph unicode="Ã" glyph-name="Atilde" horiz-adv-x="648" d="m446 860 49-34q-32-69-99-69-27 0-69 22t-59 22q-41 0-68-48l-43 37q14 30 41 50t60 21q30 0 73-22t61-22q34 0 54 43ZM205 246h239l-13 39-105 324q-12-43-108-325l-13-38ZM526 0l-59 177H182L122 0H35l235 674h112L613 0h-87Z"/><glyph unicode="Ä" glyph-name="Adieresis" horiz-adv-x="648" d="M450 754h-22l-36 15-15 37 14 36 37 15 37-14 15-37-15-37Zm-201 0h-22l-37 15-15 37 15 36 37 15 36-14 15-37-14-37Zm-44-508h239l-13 39-105 324q-12-43-108-325l-13-38ZM526 0l-59 177H182L122 0H35l235 674h112L613 0h-87Z"/><glyph unicode="Å" glyph-name="Aring" horiz-adv-x="648" d="M327 878q-22 0-37-15t-16-39q0-22 15-38t38-16 38 16 16 38-15 38-39 16Zm44-161h-44l-75 31-31 75 31 75 75 32 75-31 31-76-31-75ZM205 246h239l-13 39-105 324q-12-43-108-325l-13-38ZM526 0l-59 177H182L122 0H35l235 674h112L613 0h-87Z"/><glyph unicode="Æ" glyph-name="AE" horiz-adv-x="879" d="M252 246h204v364q-54-103-182-326l-22-38ZM536 71h295V0H456v177H212L110 0H23l383 674h419v-71H536V372h256v-71H536V71Z"/><glyph unicode="Ç" glyph-name="Ccedilla" horiz-adv-x="602" d="M333-51h71q18-25 18-71 0-54-38-91t-112-39v58q84 6 84 71 0 34-23 72Zm225 698v-83q-44 23-79 33t-92 10q-109 0-181-74t-73-193q0-124 72-198t191-74q96 0 164 51V34Q498-8 390-8 238-8 143 85T48 340q0 152 96 247t243 96q105 0 171-36Z"/><glyph unicode="È" glyph-name="Egrave" horiz-adv-x="501" d="M320 726h-69L127 882h95l98-156ZM158 71h295V0H77v674h371v-71H158V372h256v-71H158V71Z"/><glyph unicode="É" glyph-name="Eacute" horiz-adv-x="501" d="M437 883 313 727h-69l99 156h94ZM158 71h295V0H77v674h371v-71H158V372h256v-71H158V71Z"/><glyph unicode="Ê" glyph-name="Ecircumflex" horiz-adv-x="501" d="m273 832-85-105h-80l127 156h76l127-156h-80l-85 105ZM158 71h295V0H77v674h371v-71H158V372h256v-71H158V71Z"/><glyph unicode="Ë" glyph-name="Edieresis" horiz-adv-x="501" d="M391 753h-22l-36 15-15 37 14 36 37 15 37-14 15-37-15-37Zm-201 0h-22l-37 15-15 37 15 36 37 15 36-14 15-37-14-37ZM158 71h295V0H77v674h371v-71H158V372h256v-71H158V71Z"/><glyph unicode="Ì" glyph-name="Igrave" horiz-adv-x="247" d="M83 0v674h81V0H83ZM55 883l98-156H84L-40 883h95Z"/><glyph unicode="Í" glyph-name="Iacute" horiz-adv-x="247" d="M83 0v674h81V0H83Zm10 727 99 156h94L162 727H93Z"/><glyph unicode="Î" glyph-name="Icircumflex" horiz-adv-x="247" d="M86 883h76l127-156h-80l-85 105-85-105h-80L86 883ZM83 0v674h81V0H83Z"/><glyph unicode="Ï" glyph-name="Idieresis" horiz-adv-x="247" d="M83 0v674h81V0H83ZM-27 784v22l15 36 37 15 36-14 15-37-14-37-37-15-37 15Zm202 0v22l14 36 37 15 37-14 15-37-15-37-37-15-36 15Z"/><glyph unicode="Ð" glyph-name="Eth" horiz-adv-x="730" d="M228 71h122q64 0 113 22t79 60 45 86 15 103q0 110-71 185t-186 75H228V372h175v-68H228V71Zm-82 603h200q150 0 245-92t95-240q0-146-88-244T350 0H146v304H61v68h85v302Z"/><glyph unicode="Ñ" glyph-name="Ntilde" horiz-adv-x="673" d="M77 0v674h102l169-284L519 98q-4 97-4 291v285h81V0H494L325 282q-51 85-94 158t-61 106l-17 31q5-104 5-293V0H77Zm388 860 49-34q-32-69-99-69-27 0-69 22t-59 22q-41 0-68-48l-43 37q14 30 41 50t60 21q30 0 73-22t61-22q34 0 54 43Z"/><glyph unicode="Ò" glyph-name="Ograve" horiz-adv-x="700" d="M48 340q0 159 81 253t221 94q142 0 222-93t81-254q0-159-81-253T351-8Q214-8 131 87T48 340Zm85 0q0-125 59-198t159-73q103 0 159 72t57 199-57 199-160 72q-102 0-159-72t-58-199Zm162 543 98-156h-69L200 883h95Z"/><glyph unicode="Ó" glyph-name="Oacute" horiz-adv-x="700" d="m324 727 99 156h94L393 727h-69ZM48 340q0 159 81 253t221 94q142 0 222-93t81-254q0-159-81-253T351-8Q214-8 131 87T48 340Zm85 0q0-125 59-198t159-73q103 0 159 72t57 199-57 199-160 72q-102 0-159-72t-58-199Z"/><glyph unicode="Ô" glyph-name="Ocircumflex" horiz-adv-x="700" d="M133 340q0-125 59-198t159-73q103 0 159 72t57 199-57 199-160 72q-102 0-159-72t-58-199Zm-85 0q0 159 81 253t221 94q142 0 222-93t81-254q0-159-81-253T351-8Q214-8 131 87T48 340Zm271 543h76l127-156h-80l-85 105-85-105h-80l127 156Z"/><glyph unicode="Õ" glyph-name="Otilde" horiz-adv-x="700" d="M48 340q0 159 81 253t221 94q142 0 222-93t81-254q0-159-81-253T351-8Q214-8 131 87T48 340Zm85 0q0-125 59-198t159-73q103 0 159 72t57 199-57 199-160 72q-102 0-159-72t-58-199Zm339 521 49-34q-32-69-99-69-27 0-69 22t-59 22q-41 0-68-48l-43 37q14 30 41 50t60 21q30 0 73-22t61-22q34 0 54 43Z"/><glyph unicode="Ö" glyph-name="Odieresis" horiz-adv-x="700" d="M202 784v22l15 36 37 15 36-14 15-37-14-37-37-15-37 15Zm202 0v22l14 36 37 15 37-14 15-37-15-37-37-15-36 15ZM48 340q0 159 81 253t221 94q142 0 222-93t81-254q0-159-81-253T351-8Q214-8 131 87T48 340Zm85 0q0-125 59-198t159-73q103 0 159 72t57 199-57 199-160 72q-102 0-159-72t-58-199Z"/><glyph unicode="×" glyph-name="multiply" horiz-adv-x="491" d="M431 475 296 341l132-131-51-51-132 131-131-131-51 52 131 130L59 475l51 50 135-133 135 134 51-51Z"/><glyph unicode="Ø" glyph-name="Oslash" horiz-adv-x="675" d="M520 518 216 110q54-43 129-43 103 0 160 72t57 201q0 109-42 178ZM169 163l304 408q-52 41-130 41-102 0-160-72t-58-200q0-106 44-177Zm478 524-75-101q74-93 74-246 0-159-81-253T345-8Q242-8 168 46L127-9H41l77 103q-77 96-77 246 0 159 81 253t221 94q105 0 177-52l39 52h88Z"/><glyph unicode="Ù" glyph-name="Ugrave" horiz-adv-x="645" d="M488 254v420h81V256q0-130-65-197T321-8Q206-8 141 57T76 248v426h81V249q0-93 44-137t120-44q167 0 167 186ZM262 883l98-156h-69L167 883h95Z"/><glyph unicode="Ú" glyph-name="Uacute" horiz-adv-x="645" d="m300 727 99 156h94L369 727h-69Zm188-473v420h81V256q0-130-65-197T321-8Q206-8 141 57T76 248v426h81V249q0-93 44-137t120-44q167 0 167 186Z"/><glyph unicode="Û" glyph-name="Ucircumflex" horiz-adv-x="645" d="M488 254v420h81V256q0-130-65-197T321-8Q206-8 141 57T76 248v426h81V249q0-93 44-137t120-44q167 0 167 186ZM286 883h76l127-156h-80l-85 105-85-105h-80l127 156Z"/><glyph unicode="Ü" glyph-name="Udieresis" horiz-adv-x="645" d="M171 784v22l15 36 37 15 36-14 15-37-14-37-37-15-37 15Zm202 0v22l14 36 37 15 37-14 15-37-15-37-37-15-36 15Zm115-530v420h81V256q0-130-65-197T321-8Q206-8 141 57T76 248v426h81V249q0-93 44-137t120-44q167 0 167 186Z"/><glyph unicode="Ý" glyph-name="Yacute" horiz-adv-x="593" d="M472 882 348 726h-69l99 156h94Zm95-208L336 251V0h-81v250L26 674h94l51-99q52-100 83-163t36-76l5-12q9 25 127 251l51 99h94Z"/><glyph unicode="Þ" glyph-name="Thorn" horiz-adv-x="536" d="M158 193h99q79 0 119 38t40 100q0 69-41 109t-126 41h-91V193Zm0 357h88q122 0 187-59t65-158q0-92-64-150t-180-59h-96V0H77v674h81V550Z"/><glyph unicode="ß" glyph-name="germandbls" horiz-adv-x="541" d="M258 6v76q39-20 85-20 42 0 66 19t25 52q0 25-15 47t-38 39-44 36-37 42-16 55q0 27 12 52t28 40 28 40 13 50q0 37-27 60t-71 23q-112 0-112-119V0H76v496q0 96 52 145t141 49q79 0 127-45t49-109q0-44-19-77t-39-57-19-44q0-18 15-35t36-34 42-36 36-50 15-66q0-63-44-103T344-7q-55 0-86 13Z"/><glyph unicode="à" glyph-name="agrave" horiz-adv-x="492" d="M291 560h-69L98 716h95l98-156Zm55-326h-88q-64 0-96-25t-32-63 25-61 73-24q54 0 86 30t32 78v65ZM84 401v79q57 35 150 35 191 0 191-194V0h-78v60Q308-5 205-5 134-5 91 37T47 143q0 73 55 113t152 41h92v26q0 60-27 90t-91 31q-81 0-144-43Z"/><glyph unicode="á" glyph-name="aacute" horiz-adv-x="492" d="M416 716 292 560h-69l99 156h94Zm-70-482h-88q-64 0-96-25t-32-63 25-61 73-24q54 0 86 30t32 78v65ZM84 401v79q57 35 150 35 191 0 191-194V0h-78v60Q308-5 205-5 134-5 91 37T47 143q0 73 55 113t152 41h92v26q0 60-27 90t-91 31q-81 0-144-43Z"/><glyph unicode="â" glyph-name="acircumflex" horiz-adv-x="492" d="m254 664-85-105H89l127 156h76l127-156h-80l-85 105Zm92-430h-88q-64 0-96-25t-32-63 25-61 73-24q54 0 86 30t32 78v65ZM84 401v79q57 35 150 35 191 0 191-194V0h-78v60Q308-5 205-5 134-5 91 37T47 143q0 73 55 113t152 41h92v26q0 60-27 90t-91 31q-81 0-144-43Z"/><glyph unicode="ã" glyph-name="atilde" horiz-adv-x="492" d="m370 693 49-34q-32-69-99-69-27 0-69 22t-59 22q-41 0-68-48l-43 37q14 30 41 50t60 21q30 0 73-22t61-22q34 0 54 43Zm-24-459h-88q-64 0-96-25t-32-63 25-61 73-24q54 0 86 30t32 78v65ZM84 401v79q57 35 150 35 191 0 191-194V0h-78v60Q308-5 205-5 134-5 91 37T47 143q0 73 55 113t152 41h92v26q0 60-27 90t-91 31q-81 0-144-43Z"/><glyph unicode="ä" glyph-name="adieresis" horiz-adv-x="492" d="M375 584h-22l-36 15-15 37 14 36 37 15 37-14 15-37-15-37Zm-201 0h-22l-37 15-15 37 15 36 37 15 36-14 15-37-14-37Zm172-350h-88q-64 0-96-25t-32-63 25-61 73-24q54 0 86 30t32 78v65ZM84 401v79q57 35 150 35 191 0 191-194V0h-78v60Q308-5 205-5 134-5 91 37T47 143q0 73 55 113t152 41h92v26q0 60-27 90t-91 31q-81 0-144-43Z"/><glyph unicode="å" glyph-name="aring" horiz-adv-x="492" d="M255 711q-22 0-37-15t-16-39q0-22 15-38t38-16 38 16 16 38q0 23-15 38t-39 16Zm44-161h-44l-75 31-31 75 31 75 75 32 75-31 31-76-31-75Zm47-316h-88q-64 0-96-25t-32-63 25-61 73-24q54 0 86 30t32 78v65ZM84 401v79q57 35 150 35 191 0 191-194V0h-78v60Q308-5 205-5 134-5 91 37T47 143q0 73 55 113t152 41h92v26q0 60-27 90t-91 31q-81 0-144-43Z"/><glyph unicode="æ" glyph-name="ae" horiz-adv-x="819" d="M351 177v55h-75q-142 0-142-87 0-37 25-59t74-22q50 0 84 31t34 82Zm350 109v20q-1 66-35 102t-91 36-96-40-50-118h272Zm73-66H430q9-75 58-115t121-40q83 0 134 35V26Q686-5 603-5q-65 0-121 28t-86 76q-19-46-66-75T215-5Q142-5 97 34T52 142q0 74 56 115t153 41h90v25q0 60-27 90t-91 31q-80 0-144-42v77q58 36 147 36 129 0 165-90 59 88 175 88 98 0 150-61t53-177q0-28-5-55Z"/><glyph unicode="ç" glyph-name="ccedilla" horiz-adv-x="471" d="M125 251q1-82 50-136t139-55q58 0 108 33V18q-48-29-118-29-120 0-190 76T43 252q0 108 70 186t193 78q65 0 116-28v-75q-46 31-108 31-86 0-137-55t-52-138Zm214-373q0-54-38-91t-112-39v58q84 6 84 71 0 34-23 72h71q18-25 18-71Z"/><glyph unicode="è" glyph-name="egrave" horiz-adv-x="522" d="M318 560h-69L125 716h95l98-156Zm78-274v20q0 63-34 100t-94 38q-57 0-97-41t-47-117h272Zm47-186V26Q384-5 299-5 184-5 114 65T43 252q0 121 63 191t162 70q95 0 151-61t56-173q0-32-5-59H124q9-75 57-115t126-40q85 0 136 35Z"/><glyph unicode="é" glyph-name="eacute" horiz-adv-x="522" d="M444 716 320 560h-69l99 156h94Zm-48-430v20q0 63-34 100t-94 38q-57 0-97-41t-47-117h272Zm47-186V26Q384-5 299-5 184-5 114 65T43 252q0 121 63 191t162 70q95 0 151-61t56-173q0-32-5-59H124q9-75 57-115t126-40q85 0 136 35Z"/><glyph unicode="ê" glyph-name="ecircumflex" horiz-adv-x="522" d="m281 665-85-105h-80l127 156h76l127-156h-80l-85 105Zm115-379v20q0 63-34 100t-94 38q-57 0-97-41t-47-117h272Zm47-186V26Q384-5 299-5 184-5 114 65T43 252q0 121 63 191t162 70q95 0 151-61t56-173q0-32-5-59H124q9-75 57-115t126-40q85 0 136 35Z"/><glyph unicode="ë" glyph-name="edieresis" horiz-adv-x="522" d="M404 587h-22l-36 15-15 37 14 36 37 15 37-14 15-37-15-37Zm-201 0h-22l-37 15-15 37 15 36 37 15 36-14 15-37-14-37Zm193-301v20q0 63-34 100t-94 38q-57 0-97-41t-47-117h272Zm47-186V26Q384-5 299-5 184-5 114 65T43 252q0 121 63 191t162 70q95 0 151-61t56-173q0-32-5-59H124q9-75 57-115t126-40q85 0 136 35Z"/><glyph unicode="ì" glyph-name="igrave" horiz-adv-x="233" d="M77 0v507h79V0H77ZM47 715l98-156H76L-48 715h95Z"/><glyph unicode="í" glyph-name="iacute" horiz-adv-x="233" d="M77 0v507h79V0H77Zm11 560 99 156h94L157 560H88Z"/><glyph unicode="î" glyph-name="icircumflex" horiz-adv-x="233" d="M79 716h76l127-156h-80l-85 105-85-105h-80L79 716ZM77 0v507h79V0H77Z"/><glyph unicode="ï" glyph-name="idieresis" horiz-adv-x="233" d="M77 0v507h79V0H77ZM-36 618v22l15 36 37 15 36-14 15-37-14-37-37-15-37 15Zm202 0v22l14 36 37 15 37-14 15-37-15-37-37-15-36 15Z"/><glyph unicode="ð" glyph-name="eth" horiz-adv-x="517" d="M251 64q61 0 101 46t44 146q-60 79-151 79-54 0-89-35t-36-100q0-62 37-99t94-37Zm201 549-85-44q104-134 104-300 0-136-59-207T251-9Q156-9 97 53T38 202q0 96 59 151t142 55q92 0 151-68-18 106-89 196l-140-72v61l102 52q-59 59-132 97h124q40-26 75-62l122 62v-61Z"/><glyph unicode="ñ" glyph-name="ntilde" horiz-adv-x="540" d="m400 693 49-34q-32-69-99-69-27 0-69 22t-59 22q-41 0-68-48l-43 37q14 30 41 50t60 21q30 0 73-22t61-22q34 0 54 43ZM151 507v-88q45 95 160 95 74 0 118-45t44-120V0h-79v328q0 56-28 85t-75 30q-57 0-98-44t-42-122V0H73v507h78Z"/><glyph unicode="ò" glyph-name="ograve" horiz-adv-x="562" d="M279-9Q170-9 107 64T43 250q0 113 65 188t171 76q115 0 177-74t63-188q0-113-64-187T279-9Zm0 453q-72 0-113-56t-41-137q0-79 42-134t112-56q76 0 117 54t41 136q0 84-39 138t-119 55Zm-59 272 98-156h-69L125 716h95Z"/><glyph unicode="ó" glyph-name="oacute" horiz-adv-x="562" d="m258 560 99 156h94L327 560h-69ZM279-9Q170-9 107 64T43 250q0 113 65 188t171 76q115 0 177-74t63-188q0-113-64-187T279-9Zm0 453q-72 0-113-56t-41-137q0-79 42-134t112-56q76 0 117 54t41 136q0 84-39 138t-119 55Z"/><glyph unicode="ô" glyph-name="ocircumflex" horiz-adv-x="562" d="M279 444q-72 0-113-56t-41-137q0-79 42-134t112-56q76 0 117 54t41 136q0 84-39 138t-119 55Zm0-453Q170-9 107 64T43 250q0 113 65 188t171 76q115 0 177-74t63-188q0-113-64-187T279-9Zm-33 724h76l127-156h-80l-85 105-85-105h-80l127 156Z"/><glyph unicode="õ" glyph-name="otilde" horiz-adv-x="562" d="M279-9Q170-9 107 64T43 250q0 113 65 188t171 76q115 0 177-74t63-188q0-113-64-187T279-9Zm0 453q-72 0-113-56t-41-137q0-79 42-134t112-56q76 0 117 54t41 136q0 84-39 138t-119 55Zm125 249 49-34q-32-69-99-69-27 0-69 22t-59 22q-41 0-68-48l-43 37q14 30 41 50t60 21q30 0 73-22t61-22q34 0 54 43Z"/><glyph unicode="ö" glyph-name="odieresis" horiz-adv-x="562" d="M137 615v22l15 36 37 15 36-14 15-37-14-37-37-15-37 15Zm202 0v22l14 36 37 15 37-14 15-37-15-37-37-15-36 15ZM279-9Q170-9 107 64T43 250q0 113 65 188t171 76q115 0 177-74t63-188q0-113-64-187T279-9Zm0 453q-72 0-113-56t-41-137q0-79 42-134t112-56q76 0 117 54t41 136q0 84-39 138t-119 55Z"/><glyph unicode="÷" glyph-name="divide" horiz-adv-x="553" d="M223 518q0 22 15 37t38 16q21 0 36-15t16-38q0-21-15-36t-37-16q-22 0-37 15t-16 37ZM57 304v72h440v-72H57Zm166-142q0 21 15 36t38 16q21 0 36-15t16-37q0-22-15-37t-37-16q-22 0-37 15t-16 38Z"/><glyph unicode="ø" glyph-name="oslash" horiz-adv-x="563" d="M428 375 207 82q38-27 86-27 79 0 121 56t42 140q0 72-28 124ZM163 133l220 292q-38 25-91 25-75 0-117-57t-42-142q0-69 30-118Zm370 381-59-78q59-73 59-184 0-113-64-187T293-9q-72 0-128 35L138-9H56l59 79q-59 71-59 180 0 112 66 188t171 76q75 0 131-35l26 35h83Z"/><glyph unicode="ù" glyph-name="ugrave" horiz-adv-x="540" d="M304 559h-69L111 715h95l98-156Zm84-52h79V0h-79v88Q348-6 229-6q-75 0-118 44T67 158v349h79V178q0-55 28-84t76-29q63 0 100 44t38 119v279Z"/><glyph unicode="ú" glyph-name="uacute" horiz-adv-x="540" d="M433 716 309 560h-69l99 156h94Zm-45-209h79V0h-79v88Q348-6 229-6q-75 0-118 44T67 158v349h79V178q0-55 28-84t76-29q63 0 100 44t38 119v279Z"/><glyph unicode="û" glyph-name="ucircumflex" horiz-adv-x="540" d="m269 665-85-105h-80l127 156h76l127-156h-80l-85 105Zm119-158h79V0h-79v88Q348-6 229-6q-75 0-118 44T67 158v349h79V178q0-55 28-84t76-29q63 0 100 44t38 119v279Z"/><glyph unicode="ü" glyph-name="udieresis" horiz-adv-x="540" d="M393 585h-22l-36 15-15 37 14 36 37 15 37-14 15-37-15-37Zm-201 0h-22l-37 15-15 37 15 36 37 15 36-14 15-37-14-37Zm196-78h79V0h-79v88Q348-6 229-6q-75 0-118 44T67 158v349h79V178q0-55 28-84t76-29q63 0 100 44t38 119v279Z"/><glyph unicode="ý" glyph-name="yacute" horiz-adv-x="493" d="m222 560 99 156h94L291 560h-69Zm-9-547L8 507h89l66-167 89-230q8 26 80 230l59 167h85L293 13q-39-103-92-145T78-174q-26 0-42 5v71q15-4 34-4 101 0 143 115Z"/><glyph unicode="þ" glyph-name="thorn" horiz-adv-x="567" d="M296 64q64 0 105 50t41 144q0 83-40 134t-101 51-105-44-45-146q0-97 45-143t100-46ZM151 707V430q53 85 157 85 101 0 158-73t58-184q0-117-60-191T306-8Q206-8 151 77v-274H73v904h78Z"/><glyph unicode="ÿ" glyph-name="ydieresis" horiz-adv-x="493" d="M305 615v22l14 36 37 15 37-14 15-37-15-37-37-15-36 15Zm-202 0v22l15 36 37 15 36-14 15-37-14-37-37-15-37 15ZM213 13 8 507h89l66-167 89-230q8 26 80 230l59 167h85L293 13q-39-103-92-145T78-174q-26 0-42 5v71q15-4 34-4 101 0 143 115Z"/><glyph unicode="–" glyph-name="endash" horiz-adv-x="540" d="M57 237v66h426v-66H57Z"/><glyph unicode="—" glyph-name="emdash" horiz-adv-x="823" d="M57 239v66h709v-66H57Z"/><glyph unicode="‘" glyph-name="quoteleft" horiz-adv-x="180" d="m193 695-84-224H11l120 224h62Z"/><glyph unicode="’" glyph-name="quoteright" horiz-adv-x="181" d="m12 471 84 224h98L74 471H12Z"/><glyph unicode="‚" glyph-name="quotesinglbase" horiz-adv-x="181" d="m2-123 83 224h98L64-123H2Z"/><glyph unicode="“" glyph-name="quotedblleft" horiz-adv-x="324" d="m193 695-84-224H12l120 224h61Zm144 0-83-224h-95l117 224h61Z"/><glyph unicode="”" glyph-name="quotedblright" horiz-adv-x="323" d="m155 471 85 224h97L216 471h-61Zm-143 0 83 224h94L73 471H12Z"/><glyph unicode="„" glyph-name="quotedblbase" horiz-adv-x="323" d="m146-123 84 224h97L207-123h-61ZM3-123l82 224h95L64-123H3Z"/><glyph unicode="•" glyph-name="bullet" horiz-adv-x="449" d="M92 299v57l37 95 95 38q56 0 94-38t39-95-38-94-94-39q-57 0-95 38Z"/><glyph unicode="‹" glyph-name="guilsinglleft" horiz-adv-x="299" d="M267 415 120 253 267 91h-87L29 253l151 162h87Z"/><glyph unicode="›" glyph-name="guilsinglright" horiz-adv-x="297" d="m120 415 150-162L120 91H32l147 162L32 415h88Z"/></font>
</defs>
</svg>
